<?xml version="1.0" encoding="utf-8"?>
<!-- Generator: Adobe Illustrator 16.0.3, SVG Export Plug-In . SVG Version: 6.00 Build 0)  -->
<!DOCTYPE svg PUBLIC "-//W3C//DTD SVG 1.0//EN" "http://www.w3.org/TR/2001/REC-SVG-20010904/DTD/svg10.dtd">
<svg version="1.0" id="Layer_1" xmlns="http://www.w3.org/2000/svg" xmlns:xlink="http://www.w3.org/1999/xlink" x="0px" y="0px"
	 width="409px" height="205px" viewBox="0 0 409 205" enable-background="new 0 0 409 205" xml:space="preserve">
<g>
	<path fill="none" d="M40.307,59.785c-8.569,0-11.953,5.04-11.953,13.105c0,7.993,3.456,12.961,12.025,12.961
		s11.953-4.896,11.953-12.961C52.332,64.825,48.875,59.785,40.307,59.785z"/>
	<path fill="none" d="M96.106,75.77c-1.944,0-3.816,0-6.265,0.144c-2.376,0.072-4.896,0.288-7.128,0.792
		c-4.537,0.936-6.409,2.52-6.409,4.824c0,3.313,4.32,4.752,9.001,4.752c3.672,0,12.385-0.432,12.385-4.968v-4.32l0.019-1.223
		C97.276,75.699,96.394,75.77,96.106,75.77z"/>
	<path fill="none" d="M268.777,89.316c0.101,0.046,0.203,0.09,0.303,0.137c-0.053-0.1-0.102-0.202-0.154-0.302
		C268.876,89.206,268.828,89.262,268.777,89.316z"/>
	<path fill="none" d="M260.253,70.388c0.156,0.588,0.247,1.204,0.247,1.841c0,3.969-3.218,7.188-7.188,7.188
		s-7.188-3.218-7.188-7.188s3.218-7.188,7.188-7.188c0.4,0,0.791,0.041,1.174,0.104c-0.07-0.379-0.111-0.768-0.111-1.167
		c0-1.281,0.379-2.472,1.024-3.475c-1.386-0.461-2.968-0.719-4.784-0.719c-8.497,0-12.098,5.184-12.098,13.033
		c0,7.777,3.745,13.105,12.098,13.105c8.425,0,12.097-5.329,12.097-13.105c0-0.919-0.056-1.801-0.16-2.646
		c-0.554,0.155-1.136,0.245-1.739,0.245C260.624,70.417,260.438,70.404,260.253,70.388z"/>
	<path fill="none" d="M137.434,59.785c-8.569,0-11.953,5.04-11.953,13.105c0,7.993,3.456,12.961,12.025,12.961
		s11.953-4.896,11.953-12.961C149.458,64.825,146.002,59.785,137.434,59.785z"/>
	<path fill="#00AEEF" d="M344.635,71.691c-0.446,15.286-9.424,28.425-22.345,34.821v18.515c3.294,5.084,5.609,10.857,6.686,17.059
		l4.326-4.326c5.977,5.4,12.89,7.92,19.658,7.92c9.577,0,13.033-3.023,13.033-6.264c0-1.873-1.656-4.753-9.289-6.625
		c-1.296-0.288-9.433-2.305-10.801-2.664c-10.369-2.664-19.658-6.553-19.658-16.418c0-9.289,8.857-16.921,25.563-16.921
		c10.441,0,19.082,3.528,25.418,10.009l-8.568,8.496c-4.032-4.607-10.225-7.632-16.993-7.632c-9.505,0-12.962,3.025-12.962,5.761
		c0,2.447,2.665,3.96,12.098,6.336c1.296,0.36,8.064,2.088,9.433,2.377c12.169,2.951,18.218,9.288,18.218,17.064
		c0,9.001-7.921,17.354-25.923,17.354c-8.234,0-16.236-2.053-22.862-6.428c-0.045,16.802-9.102,31.479-22.59,39.471
		c8.493,4.3,18.089,6.738,28.26,6.738c34.609,0,62.666-28.057,62.666-62.667C398.001,102.218,374.833,76.185,344.635,71.691z"/>
	<path fill="#00AEEF" d="M307.338,110.556c0.927,0.558,1.828,1.152,2.711,1.772v-2.053
		C309.154,110.399,308.25,110.492,307.338,110.556z"/>
	<g>
		<path fill="#EF4136" d="M273.656,144.699c-0.295-1.659-0.535-3.338-0.696-5.039c-0.829,0.563-1.688,1.085-2.576,1.563
			C271.659,142.19,272.771,143.361,273.656,144.699z"/>
	</g>
	<g>
		<path fill="#EF4136" d="M275.944,153.659c-0.591,7.28-6.675,13.009-14.108,13.009c-7.824,0-14.167-6.344-14.167-14.167
			c0-3.19,1.067-6.126,2.848-8.494c-4.234-0.915-8.124-2.754-11.449-5.298c-0.911,3.613-1.4,7.395-1.4,11.291
			c0,25.404,20.595,46,45.999,46c8.55,0,16.55-2.341,23.409-6.404C292.507,182.22,281.217,169.328,275.944,153.659z"/>
	</g>
	<g>
		<g>
			<path fill="#8DC63F" d="M300.294,59.785c-6.624,0-11.16,3.24-11.16,9.217v22.334c5.881-6.414,13.081-11.593,21.169-15.122v-7.717
				C310.303,63.025,308.936,59.785,300.294,59.785z"/>
		</g>
		<g>
			<path fill="#8DC63F" d="M281.763,101.137c1.189-1.955,2.494-3.831,3.884-5.638h-8.148
				C279.139,97.193,280.572,99.085,281.763,101.137z"/>
		</g>
		<g>
			<path fill="#8DC63F" d="M304.498,30.333c-16.672,0-30.969,10.158-37.046,24.621c4.865,4.24,7.285,10.581,7.285,17.863
				c0,6.41-1.952,12.144-5.812,16.334c0.053,0.1,0.102,0.202,0.154,0.302c2.994,1.42,5.705,3.335,8.028,5.644V50.063h12.025v3.96
				h0.144c3.097-2.808,8.064-4.608,13.105-4.608c12.024,0,19.945,6.625,19.945,17.93l-0.013,5.019
				c4.201-0.888,8.554-1.363,13.02-1.363c3.161,0,6.265,0.24,9.3,0.691c0.012-0.396,0.03-0.792,0.03-1.191
				C344.665,48.316,326.682,30.333,304.498,30.333z"/>
		</g>
	</g>
	<g>
		<path fill="#345451" d="M324.806,146.256l4.17-4.17c-1.076-6.201-3.392-11.975-6.686-17.059v8.771
			c0,16.85-11.305,22.754-23.546,22.754c-8.137,0-14.689-3.313-19.874-9.648l8.28-8.281c3.097,4.393,7.705,6.984,11.665,6.984
			c5.617,0,11.233-2.52,11.233-11.448v-21.831c-0.883-0.62-1.784-1.215-2.711-1.772c-6.916-4.16-15.014-6.556-23.672-6.556
			c-0.148,0-0.294,0.01-0.442,0.011c0.11,0.251,0.218,0.505,0.321,0.76c1.365,3.365,2.124,7.041,2.124,10.896
			c0,9.977-5.039,18.774-12.709,23.993c0.161,1.701,0.401,3.38,0.696,5.039c1.479,2.238,2.347,4.918,2.347,7.802
			c0,0.392-0.027,0.775-0.059,1.158c5.272,15.669,16.563,28.561,31.131,35.937c13.488-7.991,22.545-22.669,22.59-39.471
			C327.947,148.99,326.317,147.709,324.806,146.256z"/>
	</g>
	<g>
		<path fill="#F9ED32" d="M280.048,104.155c0.228-0.426,0.467-0.845,0.704-1.265c-4.822-3.542-8.826-8.131-11.672-13.438
			c-0.1-0.047-0.202-0.091-0.303-0.137c-4.033,4.28-10.097,6.904-18.162,6.904c-4.989,0-9.198-0.98-12.635-2.722
			c-6.305,5.32-10.313,13.275-10.313,22.169c0,9.396,4.472,17.743,11.399,23.042C243.816,119.895,260.156,105.705,280.048,104.155z"
			/>
	</g>
	<g>
		<path fill="#EC8037" d="M261.836,138.334c3.215,0,6.17,1.084,8.548,2.889c0.888-0.478,1.747-0.999,2.576-1.563
			c-0.188-1.974-0.292-3.971-0.292-5.993c0-10.672,2.675-20.717,7.38-29.512c-19.892,1.549-36.231,15.739-40.98,34.554
			c3.325,2.544,7.215,4.383,11.449,5.298C253.102,140.568,257.203,138.334,261.836,138.334z"/>
	</g>
	<g>
		<path fill="#B8C43C" d="M277.498,95.5h-0.39v-0.403c-2.323-2.308-5.034-4.224-8.028-5.644c2.846,5.306,6.85,9.896,11.672,13.438
			c0.332-0.587,0.66-1.178,1.011-1.753C280.572,99.085,279.139,97.193,277.498,95.5z"/>
	</g>
	<g>
		<path fill="#00AA6F" d="M335.335,71c-4.466,0-8.818,0.475-13.02,1.363l-0.06,23.136h-11.953V76.214
			c-8.088,3.529-15.288,8.708-21.169,15.122V95.5h-3.487c-1.39,1.807-2.694,3.683-3.884,5.638c-0.351,0.576-0.679,1.166-1.011,1.753
			c-0.237,0.42-0.477,0.838-0.704,1.265c0.776-0.061,1.558-0.102,2.344-0.123c0.277-0.008,0.554-0.019,0.832-0.021
			c0.148-0.001,0.294-0.011,0.442-0.011c8.658,0,16.756,2.396,23.672,6.556c0.912-0.063,1.816-0.156,2.711-0.28V97.508h12.241v9.004
			c12.921-6.396,21.898-19.535,22.345-34.821C341.6,71.24,338.496,71,335.335,71z"/>
	</g>
	<g>
		<path fill="#3D846C" d="M283.545,104.771c-0.104-0.255-0.211-0.509-0.321-0.76c-0.278,0.002-0.555,0.013-0.832,0.021
			c-0.786,0.021-1.567,0.063-2.344,0.123c-4.705,8.795-7.38,18.84-7.38,29.512c0,2.022,0.104,4.02,0.292,5.993
			c7.67-5.219,12.709-14.017,12.709-23.993C285.669,111.813,284.91,108.136,283.545,104.771z"/>
	</g>
	<g>
		<path fill="#EC8037" d="M270.384,141.223c-4.084,2.195-8.753,3.444-13.715,3.444c-2.111,0-4.169-0.231-6.152-0.66
			c-1.78,2.368-2.848,5.304-2.848,8.494c0,7.823,6.343,14.167,14.167,14.167c7.434,0,13.518-5.729,14.108-13.009
			c-0.976-2.898-1.743-5.89-2.288-8.96C272.771,143.361,271.659,142.19,270.384,141.223z"/>
	</g>
	<g>
		<path fill="#F9ED32" d="M276.003,152.501c0-2.884-0.867-5.563-2.347-7.802c0.545,3.07,1.313,6.062,2.288,8.96
			C275.976,153.276,276.003,152.893,276.003,152.501z"/>
	</g>
	<g>
		<path fill="#F8971D" d="M270.384,141.223c-2.378-1.805-5.333-2.889-8.548-2.889c-4.633,0-8.734,2.234-11.319,5.673
			c1.983,0.429,4.041,0.66,6.152,0.66C261.631,144.667,266.3,143.418,270.384,141.223z"/>
	</g>
	<g>
		<path fill="#BE1E2D" d="M253.313,79.417c3.97,0,7.188-3.218,7.188-7.188c0-0.637-0.091-1.252-0.247-1.841
			c-2.902-0.25-5.251-2.424-5.767-5.243c-0.383-0.063-0.773-0.104-1.174-0.104c-3.97,0-7.188,3.218-7.188,7.188
			S249.343,79.417,253.313,79.417z"/>
		<path fill="#BE1E2D" d="M41.747,49.416c-5.185,0-10.009,1.656-12.601,4.249h-0.144v-35.65H16.977v77.557h12.025v-3.312h0.144
			c2.736,2.448,7.345,3.96,12.601,3.96c15.122,0,22.61-9.865,22.61-23.33C64.356,59.424,57.012,49.416,41.747,49.416z
			 M40.378,85.851c-8.569,0-12.025-4.968-12.025-12.961c0-8.065,3.384-13.105,11.953-13.105s12.025,5.04,12.025,13.105
			C52.332,80.954,48.947,85.851,40.378,85.851z"/>
		<path fill="#BE1E2D" d="M88.473,49.487c-7.705,0-14.689,1.873-20.881,6.265l7.417,7.489c4.104-2.736,8.785-3.816,13.321-3.816
			c5.4,0,8.856,1.944,9.145,5.761l0.005,1.169c-0.432-0.072-2.453-0.089-2.813-0.089c-11.521,0-30.315,1.368-30.315,15.121
			c0,11.665,11.593,14.905,20.522,14.905c4.608,0,9.289-1.08,12.673-3.312h0.144v2.592h12.025V67.345
			C109.715,54.888,100.714,49.487,88.473,49.487z M97.69,76.994v4.32c0,4.536-8.712,4.968-12.385,4.968
			c-4.681,0-9.001-1.44-9.001-4.752c0-2.304,1.872-3.888,6.409-4.824c2.232-0.504,4.752-0.72,7.128-0.792
			c2.448-0.144,4.321-0.144,6.265-0.144c0.288,0,1.17-0.071,1.603,0.001L97.69,76.994z"/>
		<path fill="#BE1E2D" d="M138.874,49.416c-5.185,0-10.009,1.656-12.601,4.249h-0.144v-35.65h-12.025v77.557h12.025v-3.312h0.144
			c2.736,2.448,7.345,3.96,12.601,3.96c15.122,0,22.61-9.865,22.61-23.33C161.483,59.424,154.139,49.416,138.874,49.416z
			 M137.505,85.851c-8.569,0-12.025-4.968-12.025-12.961c0-8.065,3.384-13.105,11.953-13.105s12.025,5.04,12.025,13.105
			C149.458,80.954,146.074,85.851,137.505,85.851z"/>
		<path fill="#BE1E2D" d="M186.48,75.41l-1.271,2.632l-0.875,1.75l-2.318-4.382l-11.881-25.274h-13.249l21.53,44.355
			c-2.088,4.969-4.32,6.193-6.769,6.193s-5.329-0.792-10.009-3.24v10.873c4.104,2.017,7.345,2.664,11.161,2.664
			c7.129,0,12.673-4.68,15.625-11.232l22.034-49.612h-13.249L186.48,75.41z"/>
		<rect x="212.166" y="18.014" fill="#BE1E2D" width="12.025" height="77.485"/>
		<path fill="#BE1E2D" d="M267.452,54.955c-3.986-3.475-9.612-5.539-16.909-5.539c-16.058,0-24.051,10.225-24.051,23.402
			c0,9.101,3.815,16.792,11.488,20.68c3.437,1.742,7.646,2.722,12.635,2.722c8.065,0,14.129-2.624,18.162-6.904
			c0.051-0.054,0.099-0.11,0.148-0.165c3.859-4.19,5.812-9.924,5.812-16.334C274.737,65.536,272.317,59.194,267.452,54.955z
			 M250.615,59.785c1.816,0,3.398,0.258,4.784,0.719c1.145-1.78,3.139-2.962,5.413-2.962c1.991,0,3.771,0.905,4.952,2.326
			c0.927,1.115,1.485,2.548,1.485,4.112c0,2.244-1.149,4.217-2.89,5.369c-0.55,0.364-1.159,0.642-1.809,0.824
			c0.104,0.845,0.16,1.726,0.16,2.646c0,7.777-3.672,13.105-12.097,13.105c-8.353,0-12.098-5.329-12.098-13.105
			C238.518,64.969,242.118,59.785,250.615,59.785z"/>
		<path fill="#BE1E2D" d="M302.383,49.416c-5.041,0-10.009,1.8-13.105,4.608h-0.144v-3.96h-12.025v45.033
			c0.133,0.132,0.26,0.269,0.39,0.403h8.148c1.105-1.437,2.265-2.829,3.487-4.164V69.001c0-5.977,4.536-9.217,11.16-9.217
			c8.642,0,10.009,3.24,10.009,8.712v7.717V95.5h11.953l0.06-23.136l0.013-5.019C322.328,56.04,314.407,49.416,302.383,49.416z"/>
	</g>
	<path fill="#BE1E2D" d="M289.134,95.5v-4.164c-1.223,1.334-2.382,2.727-3.487,4.164H289.134z"/>
	<path fill="#BE1E2D" d="M277.498,95.5c-0.13-0.134-0.257-0.271-0.39-0.403V95.5H277.498z"/>
	<g>
		<path fill="#FFFFFF" d="M310.049,110.275v2.053v21.831c0,8.929-5.616,11.448-11.233,11.448c-3.96,0-8.568-2.592-11.665-6.984
			l-8.28,8.281c5.185,6.336,11.737,9.648,19.874,9.648c12.241,0,23.546-5.904,23.546-22.754v-8.771v-18.515v-9.004h-12.241V110.275z
			"/>
		<path fill="#FFFFFF" d="M360.232,122.135c-1.368-0.289-8.137-2.017-9.433-2.377c-9.433-2.376-12.098-3.889-12.098-6.336
			c0-2.736,3.457-5.761,12.962-5.761c6.769,0,12.961,3.025,16.993,7.632l8.568-8.496c-6.336-6.48-14.977-10.009-25.418-10.009
			c-16.705,0-25.563,7.632-25.563,16.921c0,9.865,9.289,13.754,19.658,16.418c1.368,0.359,9.505,2.376,10.801,2.664
			c7.633,1.872,9.289,4.752,9.289,6.625c0,3.24-3.456,6.264-13.033,6.264c-6.769,0-13.682-2.52-19.658-7.92l-4.326,4.326l-4.17,4.17
			c1.512,1.453,3.142,2.734,4.859,3.869c6.626,4.375,14.628,6.428,22.862,6.428c18.002,0,25.923-8.353,25.923-17.354
			C378.45,131.423,372.401,125.086,360.232,122.135z"/>
		<path fill="#FFFFFF" d="M260.813,57.542c-2.274,0-4.269,1.182-5.413,2.962c-0.646,1.003-1.024,2.194-1.024,3.475
			c0,0.399,0.041,0.788,0.111,1.167c0.516,2.818,2.864,4.992,5.767,5.243c0.185,0.016,0.371,0.028,0.56,0.028
			c0.604,0,1.186-0.089,1.739-0.245c0.649-0.182,1.259-0.46,1.809-0.824c1.74-1.152,2.89-3.125,2.89-5.369
			c0-1.563-0.559-2.997-1.485-4.112C264.583,58.447,262.804,57.542,260.813,57.542z"/>
	</g>
</g>
</svg>
